<?xml version="1.0"?><svg height="200" width="314.902" space='preserve' xmlns="http://www.w3.org/2000/svg" xmlnsXlink="http://www.w3.org/1999/xlink">
 <!-- Created with SVG-edit - http://svg-edit.googlecode.com/ -->
 <title>schein treasure map</title>
 <defs>
  <symbol viewBox="0 0 342.289 284.248" id="svg_105">
   <defs>
    <filter id="svg_89">
     <feGaussianBlur id="svg_90" stdDeviation="1.565887"/>
    </filter>
   </defs>
   <path d="m12.5896,284.906006c2.268001,0.395996 4.68,0.395996 7.632,0c2.880001,-0.395996 6.012001,-1.044006 9.540001,-2.231995l0,0l0.323999,-3.815002l0,0c3.42,-0.252014 6.516001,-0.360016 9.864,-0.324005c3.203999,0.179993 6.012001,0.720001 9.540001,0.647003c3.419998,-0.179993 8.208,-0.826996 11.447998,-1.26001c3.276001,-0.251984 5.832001,-0.359009 7.956001,-0.324005l0,0c0.251999,-0.539978 0.251999,-1.763977 0,-3.815002c-0.323997,-2.052002 -1.727997,-5.832001 -1.584,-8.279999c0.18,-2.303986 0.935997,-4.212006 2.556,-5.723999l0,0c-0.720001,2.160004 -1.043999,3.960022 -0.972,5.399017c0.036003,1.513 0.792,1.47699 1.295998,3.492004c0.468002,2.123993 0.756004,5.003998 1.260002,8.927979l0,0c3.096001,0.072021 6.552002,0.287994 10.512001,0.64801c3.888,0.503998 7.307999,1.727997 13.031998,1.583984c5.616402,-0.179993 15.336403,-2.051971 20.988403,-2.556c5.687996,-0.359985 9.755997,-0.251984 12.743996,0.322998l0,0c3.419998,0.973022 7.524002,1.404022 12.708008,1.584015c5.220001,0.252014 12.455994,-0.286987 17.819992,-0.647003c5.076004,-0.395996 7.199997,-0.720001 13.031998,-1.26001c5.796005,-0.359985 15.805008,-0.863983 21.960007,-0.936981c6.119995,0.108002 9.899994,1.403992 14.651993,1.259979c4.716003,-0.070984 9.036011,-0.755981 13.356003,-1.906982l0,0c0.28801,-0.899994 0.611008,-1.835999 1.26001,-3.20401c0.575989,-1.115997 1.835999,-2.123993 2.230988,-4.428986c0.28801,-2.304016 -0.610992,-7.847992 -0.322998,-9.540009c0.251999,-1.583984 0.647003,-1.69101 1.584,-0.322998l0,0c-0.576004,2.880005 -0.468994,5.328003 0.322998,7.631989c0.757004,2.304016 3.061005,4.320007 4.141006,6.048004c0.899002,1.872009 -0.324005,3.313019 1.584,4.46402c1.871994,1.151978 3.852005,1.655975 9.539993,1.90799c5.544006,0.287994 17.388,-0.395996 23.868011,-0.64801c6.335999,-0.143982 8.531006,-0.179993 14.220001,-0.647003c5.579987,-0.395996 13.212006,-1.729004 19.438995,-1.90799c6.119995,-0.071991 11.951996,0.360016 17.496002,1.29599l0,0l-0.322998,5.725006l0,0c2.987,2.52002 6.227997,3.636017 9.863007,3.490997c3.563995,-0.179993 7.487976,-1.619995 11.771973,-4.463989l0,0l4.428009,-274.535433l0,0c-0.216003,-0.182 -1.332001,-0.506 -3.492004,-0.973c-2.230988,-0.469 -5.362976,-0.865 -9.539978,-1.584l0,0l-1.90802,-2.557l0,0c-3.167999,-0.072 -5.578979,0.145 -7.631989,0.648c-2.052002,0.611 -3.490997,1.332 -4.463989,2.557l0,0l0.323975,8.24403l0,0c-16.056,-0.289001 -28.332001,-0.613 -37.223999,-1.262c-8.928986,-0.574 -10.151978,-2.158031 -15.911987,-2.23003c-5.940002,0.107 -13.535995,1.87103 -18.755997,2.23003c-5.185013,0.396 -7.776001,-0.07 -12.097,0c-4.464005,0.217 -9.144012,0.434 -14.328003,0.938l0,0c-0.070999,2.412 -0.143997,4.428 -0.611008,6.047c-0.503998,1.729 -1.007996,2.916 -1.90799,3.851999l0,0c0.612,-2.087999 0.720001,-4.103998 0.32399,-6.046999c-0.503998,-1.908 -1.332001,-3.672 -2.87999,-5.436l0,0c-5.977005,-0.721001 -11.700012,-1.045031 -17.173004,-1.26003c-5.651001,-0.145 -10.727997,-0.037001 -15.910995,0.322029l0,0c0.610992,1.836 0.826996,3.529 0.646988,5.076c-0.32399,1.621 -1.511993,2.412001 -1.90799,4.465c-0.396011,2.195 -0.503998,4.823999 -0.322998,8.278999l0,0c-0.036011,-0.719 -0.145004,-1.584 -0.324005,-2.879c-0.287994,-1.26 -0.792007,-2.844 -0.973007,-4.465c-0.215988,-1.438999 0.28801,-3.202999 -0.286987,-4.751999c-0.64801,-1.584001 -0.900009,-3.168 -3.528,-4.463c-2.809006,-1.225 -8.064011,-1.83603 -12.708008,-2.23203c-4.824005,-0.252 -12.132004,-0.072001 -15.263992,0.971029c-3.132004,1.225 -1.512009,6.014 -3.20401,6.049c-1.763992,0.072001 -3.923996,-4.751999 -7.307999,-5.724999c-3.599991,-0.89803 -8.855995,0.361 -13.68,0.324c-4.823997,0.072 -9.755997,0.072 -14.939995,0l0,0c-0.972,1.332 -1.728004,2.809 -2.556,4.427999c-0.828003,1.729 -1.296005,5.473 -2.232002,5.4c-1.188004,-0.035 -3.528404,-4.393 -3.816399,-5.724999c-0.18,-1.15 2.988396,-0.863 2.556396,-1.906c-0.576401,-1.01 -1.368401,-3.78103 -5.724396,-4.430019c-4.5,-0.539011 -11.268005,-0.07001 -20.700005,1.26199l0,0c-0.863998,4.46303 -1.979996,6.695029 -3.491997,6.695029c-1.620003,-0.036999 -3.204002,-5.362999 -5.723999,-6.695029c-2.556004,-1.22499 -2.124004,-0.289 -9.540005,-0.648c-7.667,-0.29 -19.294998,-0.504001 -35.567999,-0.936l0,0c-0.647999,-1.945 -2.268,-3.061 -5.4,-3.492001c-3.059999,-0.361 -7.45198,0.107 -13.03198,1.26l0,0l3.169,271.691415l0,0c1.62,1.044006 3.24,1.656006 4.464,2.232025c1.188001,0.612 2.37598,0.791992 3.16798,0.936005l0,0c0.215,1.367981 0.432,2.735992 0.648,4.140991l0,0zm-7.019979,-7.957001c3.24,-0.612 6.29998,-0.864014 9.57598,-0.612c3.168,0.324005 7.272,1.332001 9.54,2.195984c2.232,0.972015 3.455999,1.944 3.816,3.20401l0,0c-0.216,-8.135986 -0.648001,-22.933014 -1.584,-45.503998c-1.08,-22.645004 -2.268002,-50.328003 -3.852001,-88.740005c-1.511999,-38.339996 -3.203999,-84.096397 -5.076,-139.355426l0,0c-2.087999,-1.152 -4.283999,-1.836 -6.983999,-1.908c-2.73598,-0.037 -5.57998,0.539 -8.92798,1.584l0,0c1.152,89.711027 2.304,179.424437 3.492,269.135435l0,0zm14.002979,-267.551425c14.688002,0.68402 25.379999,1.11502 32.615999,1.29502c7.056,0.179999 7.308002,-1.11502 10.188,0c2.843998,1.224999 5.076,6.301001 6.984005,7.309c1.799995,1.225 2.951996,0.684 4.139999,-0.648001c1.152,-1.225 1.907997,-3.599999 2.556,-6.983999l0,0c4.5,-0.39502 8.423996,-0.61102 11.771996,-0.64602c3.456001,-0.037001 6.588005,0.179999 8.279999,0.64602c1.368004,0.686 1.080002,2.087999 0.936005,2.844c-0.216003,0.828 -1.764,0.865 -1.584,1.908c0.18,1.297 1.727997,3.492 2.844002,4.789001c1.079994,1.295 2.628395,3.022999 3.816399,2.554998c1.007996,-0.394999 1.727997,-3.348 2.556,-5.110998c0.827995,-1.729001 1.475998,-3.527001 2.231995,-5.400001l0,0c6.048004,0.252 11.196007,0.361 15.588005,0.323999c4.355995,-0.035 7.812004,-0.790999 10.512001,-0.323999c2.520004,0.648 3.85199,2.664 5.399994,3.816c1.512009,1.224999 3.024002,3.061 4.139999,3.168c1.044006,0.144999 1.835999,-1.295 2.520004,-2.52c0.576004,-1.152 -1.115997,-3.385 1.296005,-4.465c2.375992,-1.008 8.891998,-1.295 13.031998,-1.26c4.104004,0.217 8.785004,1.225 11.520004,2.197001c2.663986,1.007999 3.456985,1.584 4.464996,3.813999c0.828003,2.377001 0.179993,7.668001 0.972,10.189001c0.755997,2.591999 1.871994,4.247999 3.491989,5.111l0,0c-0.575989,-3.348 -0.684998,-6.084 -0.32399,-8.604c0.287994,-2.377001 1.584,-4.068001 2.231995,-6.049c0.611008,-1.943001 0.936005,-3.852 1.26001,-5.725l0,0c0.575989,-0.035 3.274994,-0.035 7.955994,0c4.716003,0.072 11.304001,0.182 20.052002,0.323999l0,0c1.403992,1.656 2.412003,3.564 3.167999,5.725c0.68399,2.232 1.007996,4.572001 0.972,7.309l0,0c1.261002,-1.188999 2.412003,-2.629 3.167999,-4.465c0.828003,-1.836 1.261002,-3.816 1.584,-6.335999l0,0c11.987991,0.072 21.600998,-0.145 29.268997,-0.648001c7.595993,-0.467 10.547989,-2.23 16.235001,-2.23c5.472992,0.215 8.604004,1.943 17.173004,2.555c8.639984,0.575999 19.764008,0.792999 34.056,0.648l0,0l1.26001,259.920385l0,0c-4.716003,-1.043976 -10.188019,-1.475983 -16.848022,-1.29599c-6.839996,0.395996 -16.73999,1.944 -22.895996,2.557007c-6.083984,0.575012 -7.09198,0.610992 -13.28299,0.647003c-6.372009,0.251984 -19.115997,0.395996 -24.192001,0c-5.112,-0.468018 -4.860001,-1.511993 -6.048004,-2.556c-1.259995,-0.828003 -0.432999,-1.044006 -1.259995,-2.880005c-1.009003,-1.835999 -3.313004,-5.184998 -4.141006,-7.955994c-0.828003,-2.628021 0.072006,-6.300018 -0.647003,-7.956009c-0.863998,-1.477005 -3.491989,-2.268997 -4.140991,-1.259995c-0.792007,1.11499 0.181,5.003998 0,7.631989c-0.216003,2.735016 -0.540009,6.19101 -1.26001,8.279022c-0.863998,2.159973 -1.978989,3.600983 -3.491989,4.464996l0,0c-4.751999,1.043976 -8.891998,1.438995 -12.419998,1.583984c-3.636002,0.071014 -3.456009,-0.721008 -8.892014,-0.972992c-5.507996,-0.144012 -15.768997,-0.036011 -23.543991,0.324005c-7.921005,0.539978 -17.460999,2.268982 -23.221008,2.556c-5.723999,0.395996 -6.659988,-0.144012 -11.159988,-0.647003c-4.716003,-0.576019 -11.052002,-1.835999 -16.524002,-2.231995c-5.688004,-0.180023 -11.160004,0.468994 -16.560005,0.972992c-5.435997,0.720001 -11.448395,2.411987 -15.264397,2.556c-3.816002,0.071991 -4.176003,-1.26001 -7.307999,-1.90799c-3.132004,-0.503998 -6.948006,-0.936005 -11.448006,-1.296021l0,0c-1.727997,-3.492004 -2.591995,-6.552002 -2.879997,-9.863983c-0.288002,-3.20401 0.143997,-6.227997 1.295998,-9.216003l0,0c-2.951996,3.203979 -4.967995,5.652008 -6.047997,7.631989c-1.223999,1.944 -0.936005,2.304993 -0.648003,4.140991c0.288002,2.016022 0.936005,4.46402 2.232002,7.632019l0,0c-0.936005,0.612 -3.528,0.898987 -7.632,1.26001c-4.284,0.359985 -12.276001,0.719971 -17.172001,0.64798c-4.931999,0.036011 -8.675999,-0.181 -11.771999,-0.64798l0,0l-11.161001,-267.229424l0,0l0,-0.00001zm-5.723,273.924411l-1.26,-4.140991l-4.46398,-1.26001l0,0c3.38398,-0.143982 6.51598,-0.071991 9.53998,0.612c3.024,0.720001 5.652,1.656006 8.280001,3.20401l0,0c-2.736,1.079987 -4.932001,1.619995 -6.984001,1.90799c-2.052,0.288025 -3.707999,0.180023 -5.112,-0.322998l0,0zm327.996408,-276.157411c-1.800018,0.936 -3.924011,1.477 -6.660004,1.619c-2.880005,0.18 -6.623993,-0.035 -9.576019,-0.646c-2.951996,-0.576 -5.363983,-1.297 -7.631989,-2.557l0,0c1.187988,-1.045 2.700012,-1.584 4.140015,-1.908c1.403992,-0.252 3.131989,-0.145 4.787994,0.324l0,0l3.167999,2.232l0,0c3.923981,0.288 7.848999,0.612 11.772003,0.936l0,0zm-23.868011,0.973c0.395996,26.135018 0.720001,61.164018 0.972015,106.883424c0.181,45.973 0.287994,100.152 0.323975,165.744011l0,0c0.792023,2.052979 2.556,3.060974 5.723999,2.880981c3.024017,-0.181 7.309021,-1.403992 12.708008,-3.81601l0,0l4.140991,-270.107396l0,0c-4.175995,0.971009 -7.883972,1.547009 -11.123993,1.584009c-3.492004,0.035001 -6.40799,-0.613 -8.604004,-1.262c-2.16098,-0.575009 -3.492981,-1.080999 -4.140991,-1.907009l0,0l0,-0.00001z" id="svg_88" filter="url(#svg_89)" fill-rule="evenodd" fill="#1a1a1a"/>
   <g transform="translate(4.4490745e-2,-1.525879e-3)" id="svg_86">
    <path d="m11.466,283.574005c2.268001,0.359985 4.68,0.359985 7.632,0c2.880001,-0.432007 6.012001,-1.115997 9.540001,-2.196014l0,0l0.323999,-3.815002l0,0c3.42,-0.287994 6.516001,-0.395996 9.864,-0.323975c3.203999,0.03598 6.012001,0.612 9.540001,0.612c3.419998,-0.21701 8.208,-1.008026 11.447998,-1.261017c3.276001,-0.286987 5.832005,-0.395996 7.955997,-0.322998l0,0c0.252007,-0.575989 0.252007,-1.800995 0,-3.81601c-0.323997,-2.123993 -1.727997,-5.903992 -1.584,-8.279999c0.18,-2.375977 0.936005,-4.28299 2.556,-5.723999l0,0c-0.719994,2.052002 -1.043999,3.996002 -0.972,5.436005c0.036003,1.403992 0.792,1.403992 1.296005,3.492004c0.467995,2.088013 0.755997,5.003998 1.259995,8.893005l0,0c3.096001,0.03598 6.552002,0.251984 10.512001,0.647003c3.888,0.395996 7.308006,1.619995 13.032005,1.583984c5.615997,-0.287994 15.335999,-2.160004 20.987999,-2.556c5.687996,-0.395996 9.755997,-0.287994 12.743996,0.324005l0,0c3.420006,0.828003 7.52401,1.403015 12.708,1.584015c5.220001,0.106995 12.456009,-0.324005 17.820007,-0.612c5.075989,-0.468018 7.199997,-0.900024 13.031998,-1.296021c5.79599,-0.432007 15.804001,-0.971985 21.959991,-0.936981c6.12001,0.03598 9.900009,1.296997 14.652008,1.260986c4.716003,-0.108002 9.035995,-0.791992 13.354996,-1.90799l0,0c0.28801,-0.792023 0.612,-1.980011 1.261002,-3.167999c0.574997,-1.296021 1.835999,-2.231995 2.231003,-4.46402c0.287994,-2.375977 -0.612,-7.955994 -0.324005,-9.539978c0.251999,-1.656006 0.64801,-1.765015 1.584,-0.324005l0,0c-0.574997,2.843994 -0.468002,5.291992 0.324005,7.631989c0.755997,2.269012 3.061005,4.283997 4.139999,6.048004c0.899994,1.800995 -0.322998,3.23999 1.584,4.463989c1.871994,1.115997 3.852997,1.620026 9.539993,1.90802c5.544006,0.181 17.389008,-0.503998 23.868011,-0.647003c6.299988,-0.287994 8.604004,-0.216003 14.255981,-0.612c5.652008,-0.468018 13.141022,-1.90802 19.404022,-1.944c6.119995,-0.144012 11.951996,0.287994 17.496002,1.29599l0,0l-0.324005,5.725006l0,0c2.988007,2.483002 6.229004,3.600006 9.863983,3.492004c3.563995,-0.21701 7.488007,-1.656006 11.772003,-4.464996l0,0l4.46402,-274.53601l0,0c-0.181,-0.18 -1.404022,-0.504 -3.528015,-0.972c-2.231995,-0.468 -5.363983,-0.864 -9.540009,-1.584l0,0l-1.90799,-2.556l0,0c-3.167999,-0.072 -5.579987,0.144 -7.631989,0.647c-2.052002,0.612 -3.492004,1.332 -4.46402,2.557l0,0l0.324005,8.279l0,0c-16.057007,-0.252 -28.332001,-0.684 -37.225006,-1.296c-8.927979,-0.576 -10.151001,-2.16 -15.911987,-2.231c-5.938995,0.107 -13.535004,1.872 -18.755997,2.231c-5.184006,0.396 -7.775009,-0.071 -12.096008,0c-4.464005,0.181 -9.179993,0.504001 -14.291992,0.973001l0,0c-0.036011,2.410999 -0.251999,4.427999 -0.64801,6.047999c-0.503998,1.655001 -1.007996,2.880001 -1.906998,3.815001l0,0c0.611008,-2.087999 0.720001,-4.104 0.322998,-6.048c-0.503998,-1.872 -1.332001,-3.672 -2.87999,-5.399l0,0c-5.976013,-0.684999 -11.700012,-1.116 -17.172012,-1.297c-5.651001,-0.144 -10.727997,-0.035 -15.911987,0.324l0,0c0.612,1.835999 0.827988,3.528 0.647995,5.076c-0.324005,1.62 -1.512009,2.411999 -1.908005,4.463999c-0.395996,2.196001 -0.503998,4.824001 -0.32399,8.280001l0,0c-0.036011,-0.719999 -0.144012,-1.584 -0.323013,-2.879999c-0.32399,-1.188002 -0.684998,-2.809 -0.936996,-4.428001c-0.179993,-1.476999 0.180008,-3.168999 -0.32399,-4.787999c-0.684006,-1.513 -0.828003,-3.276 -3.492004,-4.465c-2.807999,-1.079 -8.027008,-1.943 -12.744003,-2.195c-4.824005,-0.252 -12.132004,-0.072 -15.263992,0.936c-3.060013,1.224999 -1.476013,6.013 -3.168015,6.047999c-1.763992,0.072001 -3.887985,-4.752 -7.343994,-5.724c-3.599991,-0.9 -8.855995,0.360001 -13.68,0.324c-4.823997,0.071 -9.755997,0.071 -14.939995,0l0,0c-0.972,1.332 -1.728004,2.808 -2.556,4.428c-0.828003,1.655999 -1.296005,5.543999 -2.232002,5.437c-1.188004,-0.036001 -3.528,-4.393001 -3.816002,-5.725c-0.18,-1.224 2.987999,-0.756001 2.556,-1.908c-0.575996,-1.08 -1.367996,-3.815 -5.723999,-4.464c-4.533997,-0.541 -11.194,-0.073 -20.662003,1.259l0,0c-0.863998,4.464999 -1.944,6.696 -3.528,6.696c-1.619995,-0.036 -3.203995,-5.364 -5.723999,-6.696c-2.556,-1.151 -2.124001,-0.288 -9.539997,-0.611001c-7.668003,-0.253 -19.296001,-0.577 -35.568001,-0.973l0,0c-0.648001,-1.943 -2.268002,-3.06 -5.400001,-3.491c-3.06,-0.36 -7.452,0.107 -13.032,1.26l0,0l3.168,271.691968l0,0c1.62,1.008026 3.24,1.620026 4.464,2.230988c1.188,0.504059 2.376,0.828003 3.168,0.973022l0,0c0.216001,1.367035 0.432,2.735016 0.648,4.103027l0,0z" id="svg_87" stroke-miterlimit="10" stroke-width="0.036" stroke="#000000" fill-rule="evenodd"/>
   </g>
   <path d="m3.49749,275.845459c-0.108,-35.207993 -0.324,-74.483994 -0.792,-119.915985c-0.468,-45.468002 -1.116,-94.826004 -1.944,-150.589004l0,0c3.348,-1.367 6.408,-2.016 9.324,-1.943c2.88,0.18 5.363999,1.08 7.740001,2.699l0,0l10.872,274.391994l0,0c-1.800001,-0.863983 -3.816,-1.764008 -6.588001,-2.699982c-2.807999,-0.792023 -6.587999,-2.447021 -9.683999,-2.735016c-3.096001,-0.360992 -6.12,0 -8.928,0.791992l0,0z" id="svg_84" fill-rule="evenodd" fill="url(#svg_85)"/>
   <path d="m12.10149,282.576477l-1.188,-3.888l-5.076,-2.088013l0,0c3.78,-1.152008 7.272,-1.29599 10.764,-0.575989c3.42,0.863983 6.695999,2.376007 9.827999,5.075989l0,0c-2.771999,1.368011 -5.4,2.160004 -7.74,2.376007c-2.483999,0.325012 -4.535999,-0.108002 -6.587999,-0.899994l0,0z" id="svg_83" fill-rule="evenodd" fill="#412318"/>
   <path d="m28.84149,276.024475l-11.375999,-269.315005l0,0c6.66,0.322 12.348,0.719 17.640001,0.898c5.219997,0.324 9.143997,0.434 13.427998,0.613c4.176003,0.287 8.748001,-0.396 11.628002,0.287c2.699997,0.793 3.563999,2.305 5.075996,3.564c1.403999,1.259999 2.375999,3.707 3.599998,3.889c1.152,0.322001 2.521004,-1.117001 3.564003,-2.377c0.935997,-1.225 1.584,-2.916 2.087997,-5.076l0,0c4.176003,-0.432 7.632004,-0.684 10.764,-0.9c2.988007,-0.18 5.472,-0.18 7.452003,0c1.800003,0.289 3.276001,0.938 3.888,1.801c0.540001,1.115 -0.251999,2.736 -0.288002,3.889c-0.071999,1.043 -0.720001,1.979 0,2.951c0.612,1.26 2.880005,3.527 3.888,3.889c0.863991,0.358999 0.900002,-1.117001 1.47599,-2.087999c0.431999,-1.008001 0.756012,-2.018002 1.512009,-3.564001c0.648003,-1.404 1.584,-2.953 2.664001,-4.789l0,0c3.132004,-0.18 6.840004,-0.18 11.124001,-0.287001c4.32,-0.072 10.944,-0.575999 14.327995,0c3.240005,0.756001 3.312012,3.168 5.076004,4.176001c1.656006,1.151999 3.852005,2.268 5.076004,2.087999c1.188004,-0.252 1.007996,-2.122999 1.800003,-3.275c0.575989,-0.936 0.251999,-1.98 2.087997,-2.701c1.763992,-0.684 4.643997,-1.401999 8.639999,-1.474999c3.888,0.106999 11.268997,0.971 14.651993,1.764c3.240005,0.863 3.779999,1.367 5.076004,3.313c1.115997,2.088 1.440002,6.264001 2.087997,8.639001c0.612,2.448999 1.440002,4.247999 2.087997,5.688999l0,0c-0.179993,-2.846001 -0.035995,-5.292999 0.28801,-7.488001c0.32399,-2.052999 1.115997,-3.563999 1.799988,-5.364999c0.64801,-1.836 1.116013,-3.492001 1.80101,-5.363l0,0c5.832001,-0.359 11.160004,-0.469001 16.127991,-0.324c4.932007,0.217 9.359009,0.576 13.428009,1.225l0,0c1.151993,2.051 2.087997,4.030999 2.664001,5.939c0.612,2.015999 0.863998,3.816 0.899979,5.688l0,0c1.619019,-1.618999 2.771011,-3.311001 3.312012,-5.076c0.504013,-1.764 0.504013,-3.455 0,-5.363l0,0c6.300003,0.396 12.420013,0.539 18.504013,0.287c6.119995,-0.215 12.959976,-0.898 17.603989,-1.474999c4.428009,-0.469001 5.61499,-1.477 8.963989,-1.512c3.20401,0.143 7.056,1.259999 10.439026,1.799c3.203979,0.540999 4.067993,0.936 9.539978,1.188c5.652008,0.289001 17.496002,0.686 23.292023,0.613c5.543976,0.035 8.783997,-0.217 9.863983,-0.613l0,0l0.899994,262.15299l0,0c-2.772003,-0.971985 -6.40799,-1.47699 -11.052979,-1.511993c-4.788025,0.035004 -10.548004,1.044006 -16.739014,1.511993c-6.300995,0.612 -13.571991,1.476013 -20.268982,1.764008c-6.768005,0.287994 -14.364014,0.395996 -19.728012,0.324005c-5.400009,0.179993 -9.721008,0.503998 -12.528,0c-2.916,-0.432007 -3.636017,-1.764008 -4.78801,-3.312988c-1.26001,-1.584015 -1.547989,-3.708008 -2.376007,-5.976013c-0.935989,-2.088013 -2.159988,-4.644012 -2.699982,-6.839996c-0.576019,-2.088013 -0.503998,-5.14801 -0.899002,-5.977005c-0.612,-0.611008 -1.729019,-0.070999 -2.087997,1.477005c-0.28801,1.656006 0.179993,5.544006 0,7.776001c-0.28801,2.303986 -0.937012,3.923981 -1.80101,5.687988c-0.935989,1.872009 -1.151001,4.067993 -3.562988,5.076019c-2.448013,1.115997 -6.229004,1.187988 -11.340012,1.187988c-5.291992,0 -11.735992,-1.367004 -20.016998,-1.187988c-8.530991,0.358978 -20.700012,2.267975 -29.700012,2.664001c-8.963989,0.467987 -15.947983,-0.324005 -23.580002,-0.576019c-7.811981,-0.216003 -15.40799,-1.548004 -22.103981,-1.223999c-6.660011,0.468018 -12.99601,3.096008 -17.604012,3.312012c-4.68,0.144989 -6.587997,-1.476013 -10.439987,-2.088013c-3.996002,-0.395996 -8.100014,-0.64801 -12.852013,-0.612l0,0c-0.720001,-3.635986 -1.367989,-6.479004 -1.799988,-8.675995c-0.540001,-2.123993 -0.936012,-2.916016 -0.900002,-4.463989c0.071991,-1.548004 0.431992,-3.240021 1.223991,-5.076019l0,0c-2.592003,1.404022 -4.139992,2.951996 -4.788002,4.787994c-0.683998,1.90802 0.540001,3.996002 0.900002,6.264008c0.323997,2.304993 0.720009,4.787994 1.188011,7.451996l0,0c-4.608002,0.64801 -9.108002,1.044006 -14.040001,1.188019c-5.004002,0.251984 -11.196011,0.251984 -15.228001,0c-4.068001,-0.111023 -7.019001,-0.399017 -8.855001,-0.867004l0,0z" id="svg_81" fill-rule="evenodd" fill="url(#svg_82)"/>
   <path d="m317.3815,279.58847c-0.107025,-75.923996 -0.107025,-135.322998 -0.288025,-181.799011c-0.215973,-46.152 -0.322998,-76.754 -0.610992,-93.456999l0,0c2.664001,1.908 5.256012,3.203 8.063019,3.889c2.699982,0.756 5.436981,0.575999 8.352997,0.287c2.843994,-0.215 5.832001,-0.863 8.963989,-1.799l0,0l-4.5,271.978986l0,0c-3.276001,1.871979 -6.011993,3.167999 -8.352997,3.888c-2.339996,0.936981 -3.85199,1.008026 -5.651001,0.612c-1.908997,-0.431 -3.997009,-1.727966 -5.97699,-3.599976l0,0z" id="svg_79" fill-rule="evenodd" fill="url(#svg_80)"/>
   <path d="m315.869476,4.61947c2.736023,1.801 5.868011,2.953 9.252014,3.602c3.384003,0.646 8.171997,0.791 11.052002,0.287c2.735992,-0.396 4.681,-1.295 5.687988,-2.698999l0,0c-1.440002,-0.541 -3.276001,-1.08 -5.363983,-1.477c-2.196014,-0.396 -4.644012,-0.648 -7.488007,-0.9l0,0l-3.562988,-2.375l0,0c-2.196014,-0.432 -4.140015,-0.289 -5.688019,0.287c-1.692993,0.613 -2.845001,1.656 -3.889008,3.275l0,0z" id="svg_78" fill-rule="evenodd" fill="#412318"/>
   <path d="m11.5615,283.47699c2.268001,0.395996 4.680001,0.395996 7.632001,0c2.879999,-0.395996 6.011999,-1.043976 9.539999,-2.231995l0,0l0.324001,-3.815002l0,0c3.42,-0.251984 6.516001,-0.359985 9.864,-0.324005c3.203999,0.180023 6.011997,0.720001 9.539997,0.647003c3.420002,-0.179993 8.208,-0.826996 11.448002,-1.259979c3.276001,-0.252014 5.832001,-0.359009 7.956001,-0.324005l0,0c0.251999,-0.540009 0.251999,-1.764008 0,-3.815002c-0.324005,-2.052002 -1.728004,-5.832001 -1.584,-8.279999c0.18,-2.304016 0.935997,-4.212006 2.556,-5.723999l0,0c-0.720001,2.160004 -1.043999,3.959991 -0.972,5.398987c0.035995,1.513 0.792,1.47702 1.295998,3.492004c0.468002,2.123993 0.756004,5.003998 1.260002,8.928009l0,0c3.096001,0.071991 6.552002,0.287994 10.512001,0.64798c3.888,0.504028 7.307999,1.728027 13.031998,1.584015c5.615997,-0.179993 15.335503,-2.052002 20.987503,-2.556c5.687996,-0.360016 9.755997,-0.252014 12.743996,0.322998l0,0c3.420006,0.972992 7.523994,1.403992 12.708,1.584015c5.220001,0.251984 12.455994,-0.287018 17.820007,-0.647003c5.075989,-0.395996 7.199997,-0.720001 13.031998,-1.26001c5.79599,-0.360016 15.804993,-0.864014 21.959991,-0.937012c6.12001,0.108002 9.900009,1.404022 14.652008,1.26001c4.716003,-0.071014 9.035995,-0.756012 13.356003,-1.907013l0,0c0.287994,-0.899994 0.610992,-1.835999 1.259995,-3.203979c0.576004,-1.115997 1.835999,-2.123993 2.231003,-4.429016c0.287994,-2.303986 -0.611008,-7.847992 -0.322998,-9.539978c0.251999,-1.584015 0.646988,-1.69101 1.584,-0.322998l0,0c-0.576004,2.879974 -0.469009,5.327972 0.322998,7.631989c0.757004,2.303986 3.060989,4.320007 4.140991,6.048004c0.899002,1.871979 -0.32399,3.312988 1.584,4.463989c1.872009,1.152008 3.852005,1.656006 9.540009,1.90799c5.543991,0.288025 17.388,-0.395996 23.868988,-0.64798c6.335999,-0.144012 8.529999,-0.179993 14.220001,-0.647003c5.57901,-0.395996 13.210999,-1.729004 19.438019,-1.90799c6.119995,-0.072021 11.951996,0.359985 17.496979,1.29599l0,0l-0.322998,5.725006l0,0c2.987,2.519989 6.22702,3.635986 9.862,3.490997c3.565002,-0.179993 7.488007,-1.619995 11.772003,-4.46402l0,0l4.428009,-274.534517l0,0c-0.216003,-0.182 -1.332001,-0.506 -3.492004,-0.973c-2.230988,-0.469 -5.363007,-0.865 -9.540009,-1.584l0,0l-1.90799,-2.557l0,0c-3.167999,-0.072 -5.57901,0.145 -7.631012,0.648c-2.052979,0.611 -3.490997,1.332 -4.464996,2.557l0,0l0.324005,8.24403l0,0c-16.056,-0.289 -28.332001,-0.613 -37.223999,-1.262c-8.928009,-0.57403 -10.152008,-2.15803 -15.911987,-2.23003c-5.940002,0.107 -13.536011,1.871 -18.756012,2.23003c-5.184998,0.396001 -7.776001,-0.07 -12.097,0c-4.464005,0.217 -9.143997,0.434 -14.328003,0.938001l0,0c-0.070999,2.412 -0.143997,4.427999 -0.610992,6.046999c-0.503998,1.729 -1.008011,2.916 -1.908005,3.852001l0,0c0.612,-2.088001 0.720001,-4.104 0.324005,-6.047c-0.503998,-1.908 -1.332001,-3.672001 -2.880005,-5.43603l0,0c-5.977005,-0.721 -11.699997,-1.045 -17.173004,-1.26c-5.651001,-0.145 -10.727997,-0.037 -15.910995,0.322001l0,0c0.611008,1.83603 0.826996,3.52903 0.647003,5.07603c-0.324005,1.621 -1.512009,2.412 -1.908005,4.464999c-0.395996,2.195002 -0.503998,4.824001 -0.322998,8.279001l0,0c-0.035995,-0.719 -0.145004,-1.584 -0.324005,-2.879c-0.287994,-1.26 -0.791992,-2.844002 -0.972992,-4.465c-0.216003,-1.439001 0.287994,-3.203001 -0.287003,-4.752001c-0.647995,-1.584 -0.899994,-3.168 -3.528,-4.46303c-2.809006,-1.225 -8.063995,-1.836 -12.708008,-2.232c-4.82399,-0.252 -12.131989,-0.072 -15.263992,0.971c-3.132004,1.224999 -1.511993,6.01403 -3.203995,6.049029c-1.764008,0.072001 -3.924011,-4.752029 -7.307999,-5.72503c-3.600006,-0.898 -8.85601,0.361 -13.680008,0.324c-4.823997,0.072 -9.755997,0.072 -14.940002,0l0,0c-0.972,1.33203 -1.727997,2.80903 -2.556,4.42803c-0.827995,1.729 -1.295998,5.473001 -2.231995,5.400001c-1.1875,-0.035 -3.527504,-4.393001 -3.815498,-5.725c-0.18,-1.150001 2.987999,-0.863 2.556,-1.906c-0.576004,-1.01 -1.368004,-3.78103 -5.724007,-4.43003c-4.5,-0.539 -11.267998,-0.07 -20.699997,1.262001l0,0c-0.863998,4.46303 -1.980003,6.695029 -3.491997,6.695029c-1.620003,-0.037 -3.204002,-5.363029 -5.724003,-6.695029c-2.556,-1.225 -2.124001,-0.289001 -9.540001,-0.648c-7.667,-0.29 -19.294998,-0.504 -35.567999,-0.936l0,0c-0.648001,-1.945 -2.268,-3.061 -5.400001,-3.492c-3.059999,-0.361 -7.45201,0.107 -13.03201,1.26l0,0l3.169,271.690529l0,0c1.62,1.044006 3.24,1.656006 4.464,2.231995c1.188,0.612 2.37601,0.791992 3.16801,0.936005l0,0c0.215,1.368011 0.432,2.735992 0.648,4.140991l0,0zm-7.02001,-7.957001c3.24,-0.612 6.30001,-0.863983 9.57601,-0.612c3.167999,0.324005 7.271999,1.332001 9.539999,2.196014c2.232,0.971985 3.456001,1.944 3.816,3.20401l0,0c-0.216,-8.136017 -0.647999,-22.933014 -1.584,-45.504013c-1.08,-22.645004 -2.268,-50.328003 -3.851999,-88.740005c-1.512001,-38.339996 -3.204,-84.095497 -5.076,-139.354526l0,0c-2.088,-1.152 -4.284,-1.836 -6.98401,-1.908c-2.736001,-0.037 -5.58,0.539 -8.928,1.584l0,0c1.152,89.711027 2.304,179.423536 3.492,269.134519l0,0zm14.00301,-267.550509c14.687998,0.684 25.379999,1.115 32.615999,1.295c7.056,0.18 7.307999,-1.115 10.188,0c2.843998,1.22502 5.076,6.301021 6.983997,7.30902c1.800003,1.225 2.952003,0.684 4.140007,-0.648c1.151993,-1.225 1.907997,-3.6 2.556,-6.98402l0,0c4.5,-0.395 8.423996,-0.611 11.771996,-0.646c3.456001,-0.037 6.587997,0.18 8.279999,0.646c1.368004,0.686 1.080002,2.08802 0.936005,2.84402c-0.216003,0.828 -1.764,0.865001 -1.584,1.908c0.18,1.297001 1.727997,3.492 2.843994,4.789001c1.080002,1.295 2.628006,3.023001 3.815506,2.555c1.007996,-0.395 1.727997,-3.348 2.556,-5.111c0.827995,-1.729 1.475998,-3.527 2.231995,-5.400001l0,0c6.048004,0.252 11.195999,0.361 15.588005,0.324c4.355995,-0.035 7.811996,-0.791 10.511993,-0.324c2.520004,0.648001 3.852005,2.664001 5.400009,3.816c1.511993,1.225 3.024002,3.061 4.139999,3.168c1.043991,0.145 1.835999,-1.295 2.519989,-2.52c0.576004,-1.152 -1.115997,-3.385 1.296005,-4.465c2.376007,-1.00802 8.891998,-1.29502 13.031998,-1.26002c4.104004,0.217 8.785004,1.22502 11.520004,2.19702c2.664001,1.008 3.457001,1.584001 4.464996,3.814c0.828003,2.377 0.180008,7.668 0.972,10.189c0.755997,2.592001 1.872009,4.247999 3.492004,5.111l0,0c-0.576004,-3.348 -0.684998,-6.084 -0.324005,-8.604c0.28801,-2.376999 1.584,-4.068001 2.23201,-6.049c0.610992,-1.943 0.935989,-3.852 1.259995,-5.725l0,0c0.576004,-0.035 3.274994,-0.035 7.955994,0c4.716003,0.072001 11.304001,0.182 20.052002,0.324l0,0c1.404007,1.656 2.412003,3.564 3.167999,5.724999c0.684006,2.232 1.008011,4.572001 0.972,7.309l0,0c1.261002,-1.188999 2.412003,-2.629 3.167999,-4.465c0.828003,-1.835999 1.261002,-3.815999 1.584,-6.335999l0,0c11.988007,0.072001 21.600998,-0.145 29.269012,-0.648c7.595993,-0.467 10.547989,-2.230021 16.235001,-2.230021c5.472992,0.21502 8.604004,1.943021 17.173004,2.55502c8.639984,0.576 19.763977,0.793 34.056,0.648l0,0l1.259979,259.9195l0,0c-4.716003,-1.044006 -10.187988,-1.476013 -16.847992,-1.29599c-6.839996,0.395996 -16.73999,1.944 -22.895996,2.556976c-6.084015,0.575012 -7.09201,0.611023 -13.282013,0.647003c-6.372986,0.252014 -19.116989,0.395996 -24.192993,0c-5.112,-0.467987 -4.860001,-1.511993 -6.048004,-2.556c-1.259995,-0.828003 -0.432999,-1.043976 -1.259995,-2.880005c-1.009003,-1.835999 -3.313004,-5.184998 -4.140991,-7.955994c-0.828003,-2.627991 0.071991,-6.299988 -0.647003,-7.955994c-0.863998,-1.477005 -3.492004,-2.268997 -4.141006,-1.259995c-0.791992,1.11499 0.181,5.003983 0,7.632004c-0.216003,2.734985 -0.539993,6.190979 -1.259995,8.278992c-0.863998,2.160004 -1.979004,3.601013 -3.492004,4.464996l0,0c-4.751999,1.044006 -8.891998,1.438995 -12.419998,1.584015c-3.636002,0.070984 -3.455994,-0.721008 -8.891998,-0.973022c-5.507996,-0.143982 -15.768997,-0.03598 -23.544006,0.324005c-7.92099,0.540009 -17.460999,2.269012 -23.220993,2.556c-5.723999,0.395996 -6.660004,-0.143982 -11.160004,-0.647003c-4.716003,-0.575989 -11.052002,-1.835999 -16.524002,-2.231995c-5.687996,-0.179993 -11.159996,0.468994 -16.559998,0.972992c-5.435997,0.720001 -11.447502,2.412018 -15.263496,2.556c-3.816002,0.072021 -4.176003,-1.259979 -7.308006,-1.90799c-3.131996,-0.503998 -6.947998,-0.936005 -11.447998,-1.29599l0,0c-1.727997,-3.492004 -2.591995,-6.552002 -2.879997,-9.864014c-0.288002,-3.203979 0.143997,-6.227997 1.295998,-9.215988l0,0c-2.951996,3.203995 -4.968002,5.651993 -6.047997,7.632004c-1.224003,1.944 -0.936001,2.304993 -0.648003,4.140991c0.288002,2.015991 0.935997,4.463989 2.232002,7.631989l0,0c-0.936005,0.612 -3.528,0.899017 -7.632,1.26001c-4.284,0.360016 -12.276001,0.720001 -17.172001,0.64801c-4.931999,0.03598 -8.676003,-0.181 -11.772001,-0.64801l0,0l-11.160999,-267.228508l0,0l0,-0.00001zm-5.723001,273.923525l-1.26,-4.140991l-4.46401,-1.26001l0,0c3.38401,-0.144012 6.51601,-0.071991 9.540011,0.612c3.024,0.720001 5.651999,1.656006 8.279999,3.20401l0,0c-2.736,1.079987 -4.931999,1.619995 -6.983999,1.90799c-2.052,0.287994 -3.708,0.179993 -5.112,-0.322998l0,0zm327.996493,-276.156525c-1.800995,0.936 -3.924988,1.477 -6.660004,1.619c-2.880981,0.18 -6.625,-0.035 -9.576996,-0.646c-2.951996,-0.576 -5.363983,-1.297 -7.631989,-2.557l0,0c1.187988,-1.045 2.699982,-1.584 4.139984,-1.908c1.404022,-0.252 3.132019,-0.145 4.789001,0.324l0,0l3.167999,2.232l0,0c3.923004,0.288 7.848999,0.612 11.772003,0.936l0,0zm-23.868988,0.973c0.395996,26.135022 0.720001,61.164017 0.971985,106.882523c0.181,45.973 0.289001,100.152 0.324005,165.743996l0,0c0.791992,2.053009 2.556,3.061005 5.723999,2.881012c3.024017,-0.181 7.309998,-1.404022 12.708008,-3.81601l0,0l4.140991,-270.106531l0,0c-4.175995,0.971 -7.884003,1.547 -11.123993,1.584001c-3.492004,0.035 -6.40799,-0.613001 -8.604004,-1.262c-2.160004,-0.575001 -3.492004,-1.081 -4.140991,-1.907001l0,0l0,0.00001z" id="svg_77" fill-rule="evenodd"/>
  </symbol>
  <linearGradient x1="25.021" y1="141.7847" x2="-0.0407" y2="142.4409" id="svg_85" gradientUnits="userSpaceOnUse" gradientTransform="translate(4.4490745e-2,-1.525879e-3)">
   <stop offset="0.1286" id="svg_104" stop-color="#8d5c34"/>
   <stop offset="0.2905" id="svg_103" stop-color="#e8d0a9"/>
   <stop offset="0.5952" id="svg_102" stop-color="#e3cba4"/>
   <stop offset="1" id="svg_101" stop-color="#8d5c34"/>
  </linearGradient>
  <linearGradient x1="22.2656" y1="145.43851" x2="320.6687" y2="135.01801" id="svg_82" gradientUnits="userSpaceOnUse" gradientTransform="translate(4.4490745e-2,-1.525879e-3)">
   <stop offset="0" id="svg_100" stop-color="#8d5c34"/>
   <stop offset="0.0333" id="svg_99" stop-color="#d1b38b"/>
   <stop offset="0.9143" id="svg_98" stop-color="#e3cba4"/>
   <stop offset="1" id="svg_97" stop-color="#8d5c34"/>
  </linearGradient>
  <linearGradient x1="343.0127" y1="143.6821" x2="316.1524" y2="143.9165" id="svg_80" gradientUnits="userSpaceOnUse" gradientTransform="translate(4.4490745e-2,-1.525879e-3)">
   <stop offset="0.0048" id="svg_96" stop-color="#8d5c34"/>
   <stop offset="0.1429" id="svg_95" stop-color="#93633b"/>
   <stop offset="0.2952" id="svg_94" stop-color="#e8d0a9"/>
   <stop offset="0.6381" id="svg_93" stop-color="#e3cba4"/>
   <stop offset="0.9333" id="svg_92" stop-color="#93633a"/>
   <stop offset="1" id="svg_91" stop-color="#8d5c34"/>
  </linearGradient>
 </defs>
 <g>
  <title>Layer 1</title>
  <use id="svg_106" xlink:href="#svg_105" transform="matrix(1.10288 0 0 0.982965 -39.4458 1.16787)" y="0" x="0"/>
 </g>
</svg>