<?xml version="1.0" encoding="UTF-8" standalone="no"?>
<!-- Created with Inkscape (http://www.inkscape.org/) -->
<svg
   xmlns:dc="http://purl.org/dc/elements/1.1/"
   xmlns:cc="http://creativecommons.org/ns#"
   xmlns:rdf="http://www.w3.org/1999/02/22-rdf-syntax-ns#"
   xmlns:svg="http://www.w3.org/2000/svg"
   xmlns="http://www.w3.org/2000/svg"
   xmlns:xlink="http://www.w3.org/1999/xlink"
   xmlns:sodipodi="http://sodipodi.sourceforge.net/DTD/sodipodi-0.dtd"
   xmlns:inkscape="http://www.inkscape.org/namespaces/inkscape"
   width="727.9801"
   height="733.61316"
   id="svg2"
   inkscape:label="Pozad  "
   sodipodi:version="0.32"
   inkscape:version="0.46"
   sodipodi:docbase="/media/KINGSTON/inkscape/9.c/Tomas Krauskopf/vyrobky inscapeu/nastroje"
   sodipodi:docname="Machovka_Scissors_1_ok.svg"
   inkscape:output_extension="org.inkscape.output.svg.inkscape"
   version="1.0">
  <defs
     id="defs3">
    <inkscape:perspective
       sodipodi:type="inkscape:persp3d"
       inkscape:vp_x="0 : 526.18109 : 1"
       inkscape:vp_y="0 : 1000 : 0"
       inkscape:vp_z="744.09448 : 526.18109 : 1"
       inkscape:persp3d-origin="372.04724 : 350.78739 : 1"
       id="perspective23" />
    <linearGradient
       inkscape:collect="always"
       id="linearGradient2802">
      <stop
         style="stop-color: rgb(141, 124, 116); stop-opacity: 1;"
         offset="0"
         id="stop2804" />
      <stop
         style="stop-color: rgb(141, 124, 116); stop-opacity: 0;"
         offset="1"
         id="stop2806" />
    </linearGradient>
    <linearGradient
       inkscape:collect="always"
       xlink:href="#linearGradient2802"
       id="linearGradient2808"
       x1="874.41333"
       y1="420.16702"
       x2="916.48474"
       y2="420.16702"
       gradientUnits="userSpaceOnUse" />
    <linearGradient
       inkscape:collect="always"
       xlink:href="#linearGradient2802"
       id="linearGradient2814"
       gradientUnits="userSpaceOnUse"
       x1="874.41333"
       y1="420.16702"
       x2="916.48474"
       y2="420.16702" />
    <linearGradient
       inkscape:collect="always"
       xlink:href="#linearGradient2802"
       id="linearGradient2827"
       gradientUnits="userSpaceOnUse"
       x1="874.41333"
       y1="420.16702"
       x2="916.48474"
       y2="420.16702" />
  </defs>
  <sodipodi:namedview
     id="base"
     pagecolor="#ffffff"
     bordercolor="#666666"
     borderopacity="1.0"
     inkscape:pageopacity="0.0"
     inkscape:pageshadow="2"
     inkscape:zoom="0.49497475"
     inkscape:cx="443.04837"
     inkscape:cy="524.29239"
     inkscape:document-units="px"
     inkscape:current-layer="layer1"
     inkscape:window-width="1024"
     inkscape:window-height="712"
     inkscape:window-x="44"
     inkscape:window-y="54"
     showgrid="false" />
  <metadata
     id="metadata6">
    <rdf:RDF>
      <cc:Work
         rdf:about="">
        <dc:format>image/svg+xml</dc:format>
        <dc:type
           rdf:resource="http://purl.org/dc/dcmitype/StillImage" />
        <cc:license
           rdf:resource="http://web.resource.org/cc/PublicDomain" />
        <dc:title>nuzky</dc:title>
        <dc:publisher>
          <cc:Agent>
            <dc:title>ZS a MS Machovo nam.</dc:title>
          </cc:Agent>
        </dc:publisher>
        <dc:creator>
          <cc:Agent>
            <dc:title />
          </cc:Agent>
        </dc:creator>
        <dc:language>cz</dc:language>
        <dc:subject>
          <rdf:Bag>
            <rdf:li>nuzky</rdf:li>
            <rdf:li>scissors</rdf:li>
          </rdf:Bag>
        </dc:subject>
      </cc:Work>
      <cc:License
         rdf:about="http://web.resource.org/cc/PublicDomain">
        <cc:permits
           rdf:resource="http://web.resource.org/cc/Reproduction" />
        <cc:permits
           rdf:resource="http://web.resource.org/cc/Distribution" />
        <cc:permits
           rdf:resource="http://web.resource.org/cc/DerivativeWorks" />
      </cc:License>
    </rdf:RDF>
  </metadata>
  <g
     inkscape:label="Vrstva 1"
     inkscape:groupmode="layer"
     id="layer1"
     transform="translate(-9.34031,-130.67255)">
    <g
       id="g2816"
       transform="translate(-528.571,-88.5714)"
       inkscape:export-filename="/media/KINGSTON/inkscape/9.c/Tomas Krauskopf/vyrobky inscapeu/nastroje/nuzky.png"
       inkscape:export-xdpi="90"
       inkscape:export-ydpi="90">
      <path
         sodipodi:nodetypes="cccccccccccccccccccccccccccc"
         id="path1899"
         d="M 985.90889,610.92552 L 1003.0815,607.89506 L 1019.2439,611.93567 L 1023.2845,627.08796 L 1020.2541,644.26056 L 1005.1018,683.6565 L 998.03072,721.03215 L 993.99011,770.52962 L 996.01042,807.90527 L 1001.0612,843.26061 L 1002.0713,873.56518 L 987.9292,909.93067 L 959.64492,935.18449 L 928.3302,950.33678 L 892.97486,952.35708 L 861.66013,942.25556 L 831.35555,910.94083 L 817.21342,873.56518 L 817.21342,840.23015 L 812.16265,828.10832 L 790.17389,812.18047 L 803.60174,797.20675 L 829.33525,794.77328 L 853.57891,783.66161 L 891.9647,757.39764 L 926.30989,722.0423 L 955.60431,677.59559 L 985.90889,610.92552 z"
         style="fill:#3b4544;fill-opacity:1;fill-rule:evenodd;stroke:#000000;stroke-width:1px;stroke-linecap:butt;stroke-linejoin:miter;stroke-opacity:1" />
      <path
         id="path1901"
         d="M 975.80737,582.64125 L 976.81752,597.79354 L 956.61447,617.99659 L 902.06623,664.46361 L 874.79211,697.79864 L 841.45708,739.21489 L 817.21342,779.621 L 788.92914,810.93573 L 761.65503,838.20984 L 737.41136,858.4129 L 700.03572,871.54488 L 653.5687,886.69717 L 605.08138,891.74793 L 558.61436,891.74793 L 539.42146,881.6464 L 538.41131,874.57534 L 573.76665,871.54488 L 615.1829,859.42305 L 631.34535,834.16923 L 625.28443,804.87481 L 625.28443,772.54993 L 633.36565,736.18444 L 673.77175,702.8494 L 717.20831,687.69711 L 789.9393,679.61589 L 843.47738,653.35193 L 898.02562,609.91537 L 943.48248,568.49911 L 959.64492,570.51942 L 975.80737,582.64125 z"
         style="fill:#3b4544;fill-opacity:1;fill-rule:evenodd;stroke:#000000;stroke-width:1px;stroke-linecap:butt;stroke-linejoin:miter;stroke-opacity:1" />
      <path
         id="path1903"
         d="M 908.12714,783.66161 L 924.79466,782.65145 L 945.50279,790.2276 L 959.64492,804.87481 L 971.26168,824.06771 L 975.80737,844.27076 L 975.30229,874.57534 L 966.21092,894.77839 L 953.07893,910.94083 L 934.89619,924.07281 L 916.71344,930.6388 L 894.49009,932.15403 L 875.29719,923.06266 L 855.59921,904.37484 L 844.48753,878.11087 L 843.47738,851.8469 L 851.5586,825.07786 L 866.71089,802.8545 L 888.42917,788.20729 L 908.12714,783.66161 z"
         style="fill:#ffffff;fill-opacity:1;fill-rule:evenodd;stroke:#000000;stroke-width:1px;stroke-linecap:butt;stroke-linejoin:miter;stroke-opacity:1" />
      <path
         id="path1905"
         d="M 774.78701,766.99409 L 775.29208,777.60069 L 770.7464,789.72252 L 762.66518,801.33928 L 748.01797,815.98649 L 728.31999,827.60324 L 708.62202,833.15908 L 687.40881,832.14893 L 672.25653,827.09817 L 654.07378,808.91542 L 647.00271,789.72252 L 649.02302,766.99409 L 655.58901,752.85195 L 670.23622,735.17428 L 696.50019,720.022 L 720.74385,714.46616 L 748.01797,719.01184 L 766.20071,735.67936 L 775.79716,753.86211 L 774.78701,766.99409 z"
         style="fill:#ffffff;fill-opacity:1;fill-rule:evenodd;stroke:#000000;stroke-width:1px;stroke-linecap:butt;stroke-linejoin:miter;stroke-opacity:1" />
      <path
         id="path1907"
         d="M 954.67708,569.59244 L 959.85566,570.30673 L 975.74851,582.62816 L 976.10566,587.80673 L 1001.6414,573.16387 L 1093.4271,502.09244 L 1119.3199,462.9853 L 1135.5699,437.44959 L 1159.8557,401.91387 L 1181.8199,365.66387 L 1206.8199,327.09244 L 1233.7842,283.52102 L 1239.8557,274.05673 L 1265.3914,229.77101 L 1260.2128,223.34244 L 1255.7485,221.7353 L 1044.3199,487.09244 L 993.24851,524.59244 L 954.67708,569.59244 z"
         style="fill:#cfd4d8;fill-opacity:1;fill-rule:evenodd;stroke:#000000;stroke-width:1px;stroke-linecap:butt;stroke-linejoin:miter;stroke-opacity:1" />
      <path
         sodipodi:nodetypes="cccccccccccccccccccc"
         id="path1909"
         d="M 998.78834,608.40014 L 998.03072,521.02195 L 1009.3949,512.18311 L 1014.4457,493.49529 L 1107.8848,387.42927 L 1212.4356,262.67543 L 1246.7808,219.74395 L 1257.3874,221.00664 L 1259.6602,222.7744 L 1252.8417,234.39116 L 1207.8899,304.59676 L 1153.5942,391.72242 L 1136.1691,420.51177 L 1091.2173,491.98006 L 1092.9851,501.82905 L 1085.4089,518.24402 L 1055.3569,544.50799 L 1019.2439,611.68314 L 1003.5866,607.13745 L 998.78834,608.40014 z"
         style="fill:#e1e1e1;fill-opacity:1;fill-rule:evenodd;stroke:#000000;stroke-width:1px;stroke-linecap:butt;stroke-linejoin:miter;stroke-opacity:1" />
      <g
         transform="translate(156.786,80)"
         id="g2810">
        <path
           id="path1913"
           d="M 894.64289,400.57647 L 903.21429,402.00504 L 912.14289,406.6479 L 916.07139,412.36218 L 916.07139,418.43361 L 915.35719,426.29075 L 912.85719,430.93361 L 902.85719,437.36218 L 897.14289,439.50504 L 888.92859,438.43361 L 880.35719,432.71933 L 875.71429,424.86218 L 874.99999,417.00504 L 881.42859,408.07647 L 889.99999,402.36218 L 894.64289,400.57647 z"
           style="fill:#ffffff;fill-opacity:1;fill-rule:evenodd;stroke:#000000;stroke-width:1px;stroke-linecap:butt;stroke-linejoin:miter;stroke-opacity:1" />
        <path
           style="fill:url(#linearGradient2827);fill-opacity:1;fill-rule:evenodd;stroke:#000000;stroke-width:1px;stroke-linecap:butt;stroke-linejoin:miter;stroke-opacity:1"
           d="M 894.55622,400.70274 L 903.12762,402.13131 L 912.05622,406.77417 L 915.98472,412.48845 L 915.98472,418.55988 L 915.27052,426.41702 L 912.77052,431.05988 L 902.77052,437.48845 L 897.05622,439.63131 L 888.84192,438.55988 L 880.27052,432.8456 L 875.62762,424.98845 L 874.91332,417.13131 L 881.34192,408.20274 L 889.91332,402.48845 L 894.55622,400.70274 z"
           id="path1911" />
      </g>
    </g>
  </g>
</svg>
